<svg version="1.1" id="Layer_1" xmlns="http://www.w3.org/2000/svg" xmlns:xlink="http://www.w3.org/1999/xlink" x="0px" y="0px"
	 width="100%" viewBox="0 0 300 300" enable-background="new 0 0 300 300" xml:space="preserve">
<path fill="#FDFEFD" opacity="1.000000" stroke="none" 
	d="
M142.000000,301.000000 
	C94.666664,301.000000 47.833332,301.000000 1.000000,301.000000 
	C1.000000,201.000000 1.000000,101.000000 1.000000,1.000000 
	C101.000000,1.000000 201.000000,1.000000 301.000000,1.000000 
	C301.000000,101.000000 301.000000,201.000000 301.000000,301.000000 
	C248.166672,301.000000 195.333328,301.000000 142.000000,301.000000 
M194.008087,184.004303 
	C194.008087,184.004303 194.036270,184.075607 194.599487,184.619064 
	C195.060577,184.384537 195.521652,184.150009 196.296356,184.584671 
	C199.146088,188.927979 202.023056,189.371292 205.773895,185.865341 
	C204.460068,185.578873 203.272675,185.319977 202.085266,185.061081 
	C206.192871,182.912827 206.788147,180.014847 205.085144,175.738831 
	C200.750229,175.738831 196.401138,175.738831 191.150284,175.619568 
	C184.072800,174.171371 186.325760,179.608093 185.062592,182.852570 
	C183.169922,180.208069 181.277237,177.563553 178.741974,174.021179 
	C176.924271,177.823944 175.606979,180.579803 173.878998,184.194870 
	C173.105011,180.489807 172.546967,177.818497 171.721649,173.867767 
	C169.328537,176.485443 167.969238,177.972305 166.630264,179.436935 
	C165.414352,177.848282 164.296448,176.387695 163.024994,174.726501 
	C159.337280,180.373016 159.053040,185.180222 161.651062,187.552429 
	C162.694839,186.394043 163.739883,185.234238 165.187805,184.627487 
	C166.918365,187.986923 167.760300,184.414688 169.481445,184.654709 
	C171.764694,187.627380 174.052017,189.767609 177.679092,186.078613 
	C178.273392,185.474167 180.708740,185.879013 181.683167,186.619797 
	C183.574432,188.057587 184.924469,189.137924 186.811844,186.417801 
	C188.877396,186.290497 190.942947,186.163193 193.808441,185.928680 
	C193.895569,185.302368 193.982712,184.676071 194.008087,184.004303 
M276.733765,214.699478 
	C276.406006,210.210678 276.078247,205.721893 274.882568,200.952560 
	C265.242096,200.915161 255.601471,200.825211 245.961166,200.851624 
	C227.348007,200.902634 208.735016,201.019333 189.174591,200.938965 
	C161.427032,200.985779 133.679474,201.032593 105.013985,200.925751 
	C93.188225,200.907074 81.362320,200.843307 69.536743,200.880707 
	C53.389706,200.931793 37.242912,201.059921 20.379459,201.581161 
	C20.246559,204.723404 20.302498,207.887817 19.936640,211.002686 
	C19.383438,215.712601 21.014387,217.256302 25.958218,217.247116 
	C107.369576,217.095642 188.781296,217.143219 270.192902,217.099258 
	C271.935242,217.098328 273.677277,216.544235 275.658142,215.961441 
	C275.658142,215.961441 275.673553,215.588669 275.937439,215.533386 
	C275.937439,215.533386 276.146606,215.355255 276.733765,214.699478 
M119.308456,113.571526 
	C119.210495,126.048599 119.112541,138.525665 118.481544,150.558167 
	C112.587837,138.683319 106.777832,126.765854 100.761559,114.953423 
	C98.146881,109.819717 91.287910,105.912430 86.930328,107.310265 
	C81.868004,108.934158 78.238174,112.471291 76.223663,117.569420 
	C74.507523,121.912476 72.584198,126.173668 70.184975,131.802643 
	C69.453865,129.664398 69.271751,129.091064 69.063103,128.527573 
	C65.083977,117.781250 57.735508,110.423119 46.343792,108.598381 
	C38.531353,107.346977 30.456919,107.667587 22.495184,107.512833 
	C21.721819,107.497803 20.239988,109.079353 20.229229,109.934151 
	C20.078758,121.890366 20.127178,133.849075 20.127178,146.174759 
	C25.335117,146.174759 30.065708,146.174759 35.250702,146.174759 
	C35.250702,139.581451 35.102177,133.271729 35.375015,126.980270 
	C35.430115,125.709709 36.968082,123.545029 38.012630,123.423164 
	C49.215363,122.116173 56.358574,131.655045 53.234154,142.500961 
	C51.732533,147.713593 47.236401,148.802322 43.100079,151.622208 
	C36.061390,151.726440 29.022703,151.830688 21.261425,151.968826 
	C21.014406,156.799454 20.767389,161.630066 20.487410,167.105255 
	C33.538963,166.150101 46.027302,169.248322 57.539436,162.199463 
	C57.539436,163.583908 57.539436,164.798157 57.539436,166.338150 
	C62.073940,166.338150 66.410034,166.573853 70.693634,166.203110 
	C72.087120,166.082489 73.982956,164.656906 74.553734,163.349884 
	C77.270233,157.129364 79.529808,150.711411 82.108849,144.428101 
	C84.006897,139.803879 86.147003,135.279007 88.696564,129.546783 
	C91.018379,133.348221 92.575798,135.898148 94.039330,138.294342 
	C91.902634,139.524536 89.522316,140.062546 88.868195,141.427689 
	C86.906082,145.522644 85.618073,149.940613 83.887604,154.728882 
	C88.527809,154.728882 92.518654,154.956299 96.470749,154.662521 
	C100.147385,154.389236 102.626633,155.514572 103.640442,159.140320 
	C105.247482,164.887665 108.607742,167.559265 114.839584,166.385223 
	C118.982979,165.604660 119.620338,167.975662 118.340034,171.851822 
	C116.195076,171.851822 114.064140,171.847244 111.933220,171.852493 
	C81.957108,171.926331 51.980991,172.001526 21.447094,172.046982 
	C21.336147,172.365982 21.225201,172.684998 20.945990,173.911636 
	C20.989294,177.607285 21.032600,181.302917 20.933565,185.796432 
	C22.251770,186.381042 23.568636,187.472794 24.888376,187.476273 
	C60.072735,187.569168 95.257423,187.565170 130.441833,187.485352 
	C131.641434,187.482605 132.838852,186.527390 134.382843,185.281250 
	C134.382843,169.455933 134.382843,153.630615 134.382843,136.933075 
	C143.354630,146.794846 151.402039,155.719986 159.551376,164.551102 
	C162.080078,167.291336 165.143494,167.473389 168.686935,166.269363 
	C172.363968,165.019913 172.737228,162.206589 172.901581,159.175385 
	C173.047501,156.484207 172.932205,153.778839 172.932205,151.079742 
	C173.354385,150.791840 173.776566,150.503937 174.198761,150.216049 
	C184.101105,169.000397 201.066208,167.107391 218.013565,166.371323 
	C218.013565,161.556763 218.013565,156.997238 218.013565,151.928680 
	C212.190277,151.928680 206.559708,152.064987 200.938660,151.892166 
	C194.726212,151.701202 188.658768,145.560852 187.918335,139.025696 
	C187.068604,131.525955 190.829941,125.335495 197.890182,124.061966 
	C203.070084,123.127617 208.457916,123.213028 213.757599,123.129074 
	C216.623245,123.083672 217.859283,122.368988 217.932816,119.174522 
	C218.208496,107.198090 218.326752,107.200806 206.363724,107.205254 
	C205.530701,107.205559 204.697601,107.213348 203.864655,107.205994 
	C195.007675,107.127792 187.230331,109.984322 180.833725,116.115669 
	C178.329254,118.516289 176.283569,121.395554 173.334076,124.877029 
	C173.334076,116.804947 173.334076,109.820824 173.334076,102.532822 
	C175.425247,102.532822 177.244034,102.532814 179.062820,102.532822 
	C209.385071,102.532951 239.707397,102.557198 270.029388,102.469437 
	C271.732697,102.464516 273.433319,101.537132 275.327667,100.501091 
	C275.276733,100.317558 275.225830,100.134026 275.397797,99.334373 
	C275.320862,98.911301 275.243927,98.488235 275.363983,97.177589 
	C275.298645,94.760544 275.233307,92.343506 275.275269,89.020447 
	C273.633514,88.617317 271.992432,87.865410 270.349945,87.862350 
	C234.375656,87.795227 198.401215,87.807991 162.426804,87.822021 
	C160.816330,87.822647 159.205917,87.979416 157.094162,88.089622 
	C157.094162,96.416672 157.094162,104.368942 157.094162,112.321205 
	C157.094162,120.220863 157.094162,128.120529 157.094162,136.290405 
	C155.865585,136.024841 155.230148,136.085815 154.985794,135.805679 
	C148.805939,128.720856 142.426422,121.791473 136.583374,114.436440 
	C129.620575,105.671883 124.760536,105.017647 119.308456,113.571526 
M222.504807,121.141403 
	C214.269958,134.667786 217.960159,153.599289 231.347107,161.860931 
	C249.237228,172.901642 274.280975,163.808273 276.976929,140.179565 
	C278.565063,126.260414 270.309784,113.951820 257.075073,109.147263 
	C244.608093,104.621414 231.054901,109.183777 222.504807,121.141403 
z"/>
<path fill="#26AD4E" opacity="1.000000" stroke="none" 
	d="
M44.041245,151.704819 
	C47.236401,148.802322 51.732533,147.713593 53.234154,142.500961 
	C56.358574,131.655045 49.215363,122.116173 38.012630,123.423164 
	C36.968082,123.545029 35.430115,125.709709 35.375015,126.980270 
	C35.102177,133.271729 35.250702,139.581451 35.250702,146.174759 
	C30.065708,146.174759 25.335117,146.174759 20.127178,146.174759 
	C20.127178,133.849075 20.078758,121.890366 20.229229,109.934151 
	C20.239988,109.079353 21.721819,107.497803 22.495184,107.512833 
	C30.456919,107.667587 38.531353,107.346977 46.343792,108.598381 
	C57.735508,110.423119 65.083977,117.781250 69.063103,128.527573 
	C69.271751,129.091064 69.453865,129.664398 70.184975,131.802643 
	C72.584198,126.173668 74.507523,121.912476 76.223663,117.569420 
	C78.238174,112.471291 81.868004,108.934158 86.930328,107.310265 
	C91.287910,105.912430 98.146881,109.819717 100.761559,114.953423 
	C106.777832,126.765854 112.587837,138.683319 119.137787,150.667175 
	C120.195946,149.953339 120.941605,149.133041 120.947731,148.307266 
	C121.027763,137.505676 121.036835,126.703033 120.950127,115.901566 
	C120.941940,114.881165 120.166916,113.866928 119.747925,112.849831 
	C124.760536,105.017647 129.620575,105.671883 136.583374,114.436440 
	C142.426422,121.791473 148.805939,128.720856 154.985794,135.805679 
	C155.230148,136.085815 155.865585,136.024841 157.094162,136.290405 
	C157.094162,128.120529 157.094162,120.220863 157.094162,112.321205 
	C157.094162,104.368942 157.094162,96.416672 157.094162,88.089622 
	C159.205917,87.979416 160.816330,87.822647 162.426804,87.822021 
	C198.401215,87.807991 234.375656,87.795227 270.349945,87.862350 
	C271.992432,87.865410 273.633514,88.617317 274.905823,89.727356 
	C274.746613,92.977890 274.956818,95.521530 275.166992,98.065163 
	C275.243927,98.488235 275.320862,98.911301 275.093445,99.735909 
	C274.705444,100.251045 274.530853,100.440262 274.552490,100.466293 
	C274.725800,100.674644 274.936157,100.852142 275.135193,101.039093 
	C273.433319,101.537132 271.732697,102.464516 270.029388,102.469437 
	C239.707397,102.557198 209.385071,102.532951 179.062820,102.532822 
	C177.244034,102.532814 175.425247,102.532822 173.334076,102.532822 
	C173.334076,109.820824 173.334076,116.804947 173.334076,124.877029 
	C176.283569,121.395554 178.329254,118.516289 180.833725,116.115669 
	C187.230331,109.984322 195.007675,107.127792 203.864655,107.205994 
	C204.697601,107.213348 205.530701,107.205559 206.363724,107.205254 
	C218.326752,107.200806 218.208496,107.198090 217.932816,119.174522 
	C217.859283,122.368988 216.623245,123.083672 213.757599,123.129074 
	C208.457916,123.213028 203.070084,123.127617 197.890182,124.061966 
	C190.829941,125.335495 187.068604,131.525955 187.918335,139.025696 
	C188.658768,145.560852 194.726212,151.701202 200.938660,151.892166 
	C206.559708,152.064987 212.190277,151.928680 218.013565,151.928680 
	C218.013565,156.997238 218.013565,161.556763 218.013565,166.371323 
	C201.066208,167.107391 184.101105,169.000397 174.198761,150.216049 
	C173.776566,150.503937 173.354385,150.791840 172.932205,151.079742 
	C172.932205,153.778839 173.047501,156.484207 172.901581,159.175385 
	C172.737228,162.206589 172.363968,165.019913 168.686935,166.269363 
	C165.143494,167.473389 162.080078,167.291336 159.551376,164.551102 
	C151.402039,155.719986 143.354630,146.794846 134.382843,136.933075 
	C134.382843,153.630615 134.382843,169.455933 133.738922,185.639008 
	C97.851364,185.995087 62.607697,186.010361 27.364164,185.949249 
	C25.267534,185.945618 23.171967,185.329620 21.075905,184.998566 
	C21.032600,181.302917 20.989294,177.607285 21.227985,173.356400 
	C21.753847,172.613449 21.918812,172.371857 22.004875,172.076385 
	C51.980991,172.001526 81.957108,171.926331 111.933220,171.852493 
	C114.064140,171.847244 116.195076,171.851822 118.340034,171.851822 
	C119.620338,167.975662 118.982979,165.604660 114.839584,166.385223 
	C108.607742,167.559265 105.247482,164.887665 103.640442,159.140320 
	C102.626633,155.514572 100.147385,154.389236 96.470749,154.662521 
	C92.518654,154.956299 88.527809,154.728882 83.887604,154.728882 
	C85.618073,149.940613 86.906082,145.522644 88.868195,141.427689 
	C89.522316,140.062546 91.902634,139.524536 94.039330,138.294342 
	C92.575798,135.898148 91.018379,133.348221 88.696564,129.546783 
	C86.147003,135.279007 84.006897,139.803879 82.108849,144.428101 
	C79.529808,150.711411 77.270233,157.129364 74.553734,163.349884 
	C73.982956,164.656906 72.087120,166.082489 70.693634,166.203110 
	C66.410034,166.573853 62.073940,166.338150 57.539436,166.338150 
	C57.539436,164.798157 57.539436,163.583908 57.539436,162.199463 
	C46.027302,169.248322 33.538963,166.150101 20.487410,167.105255 
	C20.767389,161.630066 21.014406,156.799454 21.712185,152.353729 
	C22.491564,153.084702 22.814442,153.726501 23.149658,153.733017 
	C29.409092,153.854630 35.671295,153.973984 41.928791,153.862457 
	C42.645535,153.849670 43.337688,152.457443 44.041245,151.704819 
M190.502075,101.001526 
	C217.228287,101.001526 243.954498,101.001526 270.680695,101.001526 
	C270.678223,100.762772 270.675781,100.524025 270.673309,100.285271 
	C238.491531,100.285271 206.309769,100.285271 174.127991,100.285271 
	C174.124802,100.524025 174.121628,100.762772 174.118439,101.001526 
	C179.246796,101.001526 184.375137,101.001526 190.502075,101.001526 
M158.997559,99.555153 
	C158.997559,110.634865 158.997559,121.714577 158.997559,132.794296 
	C159.223907,132.789261 159.450241,132.784225 159.676590,132.779205 
	C159.676590,118.593498 159.676590,104.407791 159.676590,90.222084 
	C159.450241,90.219353 159.223907,90.216629 158.997559,90.213905 
	C158.997559,93.002968 158.997559,95.792038 158.997559,99.555153 
z"/>
<path fill="#28AD4F" opacity="1.000000" stroke="none" 
	d="
M222.759857,120.877121 
	C231.054901,109.183777 244.608093,104.621414 257.075073,109.147263 
	C270.309784,113.951820 278.565063,126.260414 276.976929,140.179565 
	C274.280975,163.808273 249.237228,172.901642 231.347107,161.860931 
	C217.960159,153.599289 214.269958,134.667786 222.759857,120.877121 
M232.907516,139.131073 
	C233.808990,141.228577 234.407791,143.531128 235.665390,145.387344 
	C240.580154,152.641678 249.596817,153.919891 256.552338,148.540771 
	C263.169983,143.422943 263.950592,133.782211 258.262909,127.415237 
	C253.907654,122.539803 247.751770,121.138763 240.583221,124.458717 
	C235.041580,127.025192 232.436157,131.990112 232.907516,139.131073 
z"/>
<path fill="#929392" opacity="1.000000" stroke="none" 
	d="
M275.419434,216.248199 
	C273.677277,216.544235 271.935242,217.098328 270.192902,217.099258 
	C188.781296,217.143219 107.369576,217.095642 25.958218,217.247116 
	C21.014387,217.256302 19.383438,215.712601 19.936640,211.002686 
	C20.302498,207.887817 20.246559,204.723404 20.773911,201.598557 
	C21.168364,201.615952 21.246149,202.075943 21.180065,202.529007 
	C21.100058,204.981018 21.074598,206.979965 21.074295,208.978912 
	C21.073244,215.883316 21.076584,215.889694 27.766438,215.890533 
	C51.756458,215.893494 75.746544,215.915176 99.736397,215.850906 
	C101.845085,215.845261 103.952232,215.264816 106.525391,214.964172 
	C134.826981,214.957260 162.663269,214.937531 190.833771,215.010803 
	C191.382248,215.190918 191.596512,215.277985 192.175568,215.584885 
	C194.864182,215.881592 197.187790,216.018341 199.511841,216.026199 
	C224.814331,216.111816 250.116898,216.177261 275.419434,216.248199 
z"/>
<path fill="#42B563" opacity="1.000000" stroke="none" 
	d="
M21.004734,185.397491 
	C23.171967,185.329620 25.267534,185.945618 27.364164,185.949249 
	C62.607697,186.010361 97.851364,185.995087 133.566147,186.006470 
	C132.838852,186.527390 131.641434,187.482605 130.441833,187.485352 
	C95.257423,187.565170 60.072735,187.569168 24.888376,187.476273 
	C23.568636,187.472794 22.251770,186.381042 21.004734,185.397491 
z"/>
<path fill="#DADADA" opacity="1.000000" stroke="none" 
	d="
M164.784927,184.074432 
	C163.739883,185.234238 162.694839,186.394043 161.651062,187.552429 
	C159.053040,185.180222 159.337280,180.373016 163.024994,174.726501 
	C164.296448,176.387695 165.414352,177.848282 166.630264,179.436935 
	C167.969238,177.972305 169.328537,176.485443 171.721649,173.867767 
	C172.546967,177.818497 173.105011,180.489807 173.878998,184.194870 
	C175.606979,180.579803 176.924271,177.823944 178.741974,174.021179 
	C181.277237,177.563553 183.169922,180.208069 185.511963,183.274933 
	C185.972153,184.474518 185.982971,185.251724 185.993790,186.028946 
	C184.924469,189.137924 183.574432,188.057587 181.683167,186.619797 
	C180.708740,185.879013 178.273392,185.474167 177.679092,186.078613 
	C174.052017,189.767609 171.764694,187.627380 169.193573,184.030792 
	C166.753540,182.315353 164.601395,181.223831 161.401260,179.600800 
	C163.087769,181.830566 163.936356,182.952499 164.784927,184.074432 
M170.047394,178.446640 
	C169.956665,179.187469 169.865936,179.928314 169.775223,180.669144 
	C170.133331,180.692749 170.491425,180.716339 170.849533,180.739944 
	C170.795120,179.905807 170.740723,179.071655 170.047394,178.446640 
z"/>
<path fill="#DADADA" opacity="1.000000" stroke="none" 
	d="
M192.052063,175.738831 
	C196.401138,175.738831 200.750229,175.738831 205.085144,175.738831 
	C206.788147,180.014847 206.192871,182.912827 202.085266,185.061081 
	C203.272675,185.319977 204.460068,185.578873 205.773895,185.865341 
	C202.023056,189.371292 199.146088,188.927979 196.166656,183.829025 
	C196.024933,178.703979 196.024933,178.703979 193.561172,178.428513 
	C193.716461,180.274429 193.876373,182.175018 194.036270,184.075607 
	C194.036270,184.075607 194.008087,184.004303 193.824768,183.900620 
	C193.284561,183.863953 193.037796,184.065613 192.525787,184.530334 
	C189.410843,185.329239 187.660751,184.227982 188.439590,181.479202 
	C189.030975,179.392105 190.804535,177.639999 192.052063,175.738831 
M200.471283,183.493561 
	C200.471283,183.493561 200.509903,183.490128 200.471283,183.493561 
z"/>
<path fill="#994D50" opacity="1.000000" stroke="none" 
	d="
M190.121964,201.108795 
	C208.735016,201.019333 227.348007,200.902634 245.961166,200.851624 
	C255.601471,200.825211 265.242096,200.915161 275.229218,201.401245 
	C275.493103,202.046906 275.410370,202.243896 275.115082,202.355591 
	C274.611511,202.137451 274.311096,202.110825 273.536713,202.124298 
	C246.382370,202.094345 219.692612,202.130493 192.607788,202.128937 
	C191.689606,202.159760 191.166504,202.228287 190.443878,202.295898 
	C190.244354,202.294998 189.927002,202.053131 189.997803,201.821594 
	C190.068619,201.590073 190.121964,201.108780 190.121964,201.108795 
z"/>
<path fill="#467655" opacity="1.000000" stroke="none" 
	d="
M21.246149,202.075943 
	C21.246149,202.075943 21.168364,201.615952 21.132189,201.385498 
	C37.242912,201.059921 53.389706,200.931793 69.536743,200.880707 
	C81.362320,200.843307 93.188225,200.907074 105.389519,201.251602 
	C105.680244,201.730637 105.595444,201.883835 105.085419,202.026489 
	C76.855499,202.035965 49.050827,202.055954 21.246149,202.075943 
z"/>
<path fill="#979797" opacity="1.000000" stroke="none" 
	d="
M105.510651,202.037018 
	C105.595444,201.883835 105.680244,201.730637 105.848488,201.328430 
	C133.679474,201.032593 161.427032,200.985779 189.648285,201.023865 
	C190.121964,201.108780 190.068619,201.590073 189.536789,201.859131 
	C161.400681,202.131699 133.796402,202.135208 106.014343,202.162933 
	C105.836563,202.187180 105.510651,202.037018 105.510651,202.037018 
z"/>
<path fill="#994D50" opacity="1.000000" stroke="none" 
	d="
M275.538788,216.104828 
	C250.116898,216.177261 224.814331,216.111816 199.511841,216.026199 
	C197.187790,216.018341 194.864182,215.881592 192.649658,215.472488 
	C220.139420,215.060730 247.519913,214.981186 275.086182,215.081848 
	C275.405853,215.370941 275.539703,215.479797 275.673553,215.588669 
	C275.673553,215.588669 275.658142,215.961441 275.538788,216.104828 
z"/>
<path fill="#0DA236" opacity="1.000000" stroke="none" 
	d="
M119.528191,113.210678 
	C120.166916,113.866928 120.941940,114.881165 120.950127,115.901566 
	C121.036835,126.703033 121.027763,137.505676 120.947731,148.307266 
	C120.941605,149.133041 120.195946,149.953339 119.404312,150.889465 
	C119.112541,138.525665 119.210495,126.048599 119.528191,113.210678 
z"/>
<path fill="#1CA73F" opacity="1.000000" stroke="none" 
	d="
M43.570663,151.663513 
	C43.337688,152.457443 42.645535,153.849670 41.928791,153.862457 
	C35.671295,153.973984 29.409092,153.854630 23.149658,153.733017 
	C22.814442,153.726501 22.491564,153.084702 22.073479,152.336761 
	C29.022703,151.830688 36.061390,151.726440 43.570663,151.663513 
z"/>
<path fill="#444546" opacity="1.000000" stroke="none" 
	d="
M191.601166,175.679199 
	C190.804535,177.639999 189.030975,179.392105 188.439590,181.479202 
	C187.660751,184.227982 189.410843,185.329239 192.548721,184.939362 
	C192.967499,185.491943 192.988007,185.763916 193.008499,186.035889 
	C190.942947,186.163193 188.877396,186.290497 186.402817,186.223373 
	C185.982971,185.251724 185.972153,184.474518 185.851013,183.323975 
	C186.325760,179.608093 184.072800,174.171371 191.601166,175.679199 
z"/>
<path fill="#707070" opacity="1.000000" stroke="none" 
	d="
M164.986359,184.350952 
	C163.936356,182.952499 163.087769,181.830566 161.401260,179.600800 
	C164.601395,181.223831 166.753540,182.315353 168.965057,183.771271 
	C167.760300,184.414688 166.918365,187.986923 164.986359,184.350952 
z"/>
<path fill="#929392" opacity="1.000000" stroke="none" 
	d="
M275.327667,202.440872 
	C275.410370,202.243896 275.493103,202.046906 275.663177,201.541504 
	C276.078247,205.721893 276.406006,210.210678 276.353882,214.533020 
	C275.794281,210.848694 275.614532,207.330826 275.448975,203.581604 
	C275.473083,203.038895 275.427917,202.735779 275.327667,202.440872 
z"/>
<path fill="#5C5C5D" opacity="1.000000" stroke="none" 
	d="
M194.317871,184.347336 
	C193.876373,182.175018 193.716461,180.274429 193.561172,178.428513 
	C196.024933,178.703979 196.024933,178.703979 196.009842,183.494431 
	C195.521652,184.150009 195.060577,184.384537 194.317871,184.347336 
z"/>
<path fill="#994D50" opacity="1.000000" stroke="none" 
	d="
M275.434784,203.812973 
	C275.614532,207.330826 275.794281,210.848694 276.060303,214.860901 
	C276.146606,215.355255 275.937439,215.533386 275.805481,215.561035 
	C275.539703,215.479797 275.405853,215.370941 275.121582,214.640549 
	C275.125702,210.617004 275.280243,207.214996 275.434784,203.812973 
z"/>
<path fill="#1AA740" opacity="1.000000" stroke="none" 
	d="
M275.265503,97.621376 
	C274.956818,95.521530 274.746613,92.977890 274.852173,90.180359 
	C275.233307,92.343506 275.298645,94.760544 275.265503,97.621376 
z"/>
<path fill="#5C5C5D" opacity="1.000000" stroke="none" 
	d="
M193.408478,185.982285 
	C192.988007,185.763916 192.967499,185.491943 192.924072,184.810928 
	C193.037796,184.065613 193.284561,183.863953 193.855652,183.923340 
	C193.982712,184.676071 193.895569,185.302368 193.408478,185.982285 
z"/>
<path fill="#42B563" opacity="1.000000" stroke="none" 
	d="
M21.725985,172.061691 
	C21.918812,172.371857 21.753847,172.613449 21.312119,172.902588 
	C21.225201,172.684998 21.336147,172.365982 21.725985,172.061691 
z"/>
<path fill="#1AA740" opacity="1.000000" stroke="none" 
	d="
M275.231445,100.770096 
	C274.936157,100.852142 274.725800,100.674644 274.552490,100.466293 
	C274.530853,100.440262 274.705444,100.251045 274.981995,100.043976 
	C275.225830,100.134026 275.276733,100.317558 275.231445,100.770096 
z"/>
<path fill="#1AA740" opacity="1.000000" stroke="none" 
	d="
M190.002777,101.001526 
	C184.375137,101.001526 179.246796,101.001526 174.118439,101.001526 
	C174.121628,100.762772 174.124802,100.524025 174.127991,100.285271 
	C206.309769,100.285271 238.491531,100.285271 270.673309,100.285271 
	C270.675781,100.524025 270.678223,100.762772 270.680695,101.001526 
	C243.954498,101.001526 217.228287,101.001526 190.002777,101.001526 
z"/>
<path fill="#10A843" opacity="1.000000" stroke="none" 
	d="
M158.997559,99.068130 
	C158.997559,95.792038 158.997559,93.002968 158.997559,90.213905 
	C159.223907,90.216629 159.450241,90.219353 159.676590,90.222084 
	C159.676590,104.407791 159.676590,118.593498 159.676590,132.779205 
	C159.450241,132.784225 159.223907,132.789261 158.997559,132.794296 
	C158.997559,121.714577 158.997559,110.634865 158.997559,99.068130 
z"/>
<path fill="#F8FCF9" opacity="1.000000" stroke="none" 
	d="
M232.897034,138.705521 
	C232.436157,131.990112 235.041580,127.025192 240.583221,124.458717 
	C247.751770,121.138763 253.907654,122.539803 258.262909,127.415237 
	C263.950592,133.782211 263.169983,143.422943 256.552338,148.540771 
	C249.596817,153.919891 240.580154,152.641678 235.665390,145.387344 
	C234.407791,143.531128 233.808990,141.228577 232.897034,138.705521 
z"/>
<path fill="#23A94C" opacity="1.000000" stroke="none" 
	d="
M21.180065,202.529007 
	C49.050827,202.055954 76.855499,202.035965 105.085419,202.026489 
	C105.510651,202.037018 105.836563,202.187180 105.914955,202.603775 
	C106.015594,206.997360 106.037842,210.974350 106.060089,214.951355 
	C103.952232,215.264816 101.845085,215.845261 99.736397,215.850906 
	C75.746544,215.915176 51.756458,215.893494 27.766438,215.890533 
	C21.076584,215.889694 21.073244,215.883316 21.074295,208.978912 
	C21.074598,206.979965 21.100058,204.981018 21.180065,202.529007 
z"/>
<path fill="#FCFCFB" opacity="1.000000" stroke="none" 
	d="
M106.525391,214.964172 
	C106.037842,210.974350 106.015594,206.997360 106.092728,202.579529 
	C133.796402,202.135208 161.400681,202.131699 189.465973,202.090668 
	C189.927002,202.053131 190.244354,202.294998 190.428879,202.730453 
	C190.575455,207.083206 190.537506,211.000488 190.499542,214.917786 
	C162.663269,214.937531 134.826981,214.957260 106.525391,214.964172 
z"/>
<path fill="#F00D16" opacity="1.000000" stroke="none" 
	d="
M190.833771,215.010803 
	C190.537506,211.000488 190.575455,207.083206 190.628387,202.731354 
	C191.166504,202.228287 191.689606,202.159760 192.607880,202.576294 
	C193.003128,204.558609 193.002289,206.055832 193.003510,207.553070 
	C193.008698,213.993668 193.008911,213.997940 199.499863,213.998596 
	C220.461151,214.000717 241.422440,213.999374 262.383728,213.999374 
	C273.995575,213.999374 273.995575,213.999390 274.001282,202.190414 
	C274.311096,202.110825 274.611511,202.137451 275.115082,202.355591 
	C275.427917,202.735779 275.473083,203.038895 275.448975,203.581604 
	C275.280243,207.214996 275.125702,210.617004 274.935791,214.460327 
	C247.519913,214.981186 220.139420,215.060730 192.284851,215.252670 
	C191.596512,215.277985 191.382248,215.190918 190.833771,215.010803 
z"/>
<path fill="#19191A" opacity="1.000000" stroke="none" 
	d="
M170.366852,178.342072 
	C170.740723,179.071655 170.795120,179.905807 170.849533,180.739944 
	C170.491425,180.716339 170.133331,180.692749 169.775223,180.669144 
	C169.865936,179.928314 169.956665,179.187469 170.366852,178.342072 
z"/>
<path fill="#FDFEFD" opacity="1.000000" stroke="none" 
	d="
M200.490601,183.491852 
	C200.509903,183.490128 200.471283,183.493561 200.490601,183.491852 
z"/>
<path fill="#EB1C24" opacity="1.000000" stroke="none" 
	d="
M273.536713,202.124298 
	C273.995575,213.999390 273.995575,213.999374 262.383728,213.999374 
	C241.422440,213.999374 220.461151,214.000717 199.499863,213.998596 
	C193.008911,213.997940 193.008698,213.993668 193.003510,207.553070 
	C193.002289,206.055832 193.003128,204.558609 193.002930,202.614014 
	C219.692612,202.130493 246.382370,202.094345 273.536713,202.124298 
z"/>
</svg>