<svg version="1.1" id="Layer_1" xmlns="http://www.w3.org/2000/svg" xmlns:xlink="http://www.w3.org/1999/xlink" x="0px" y="0px"
	 width="100%" viewBox="0 0 288 288" enable-background="new 0 0 288 288" xml:space="preserve">
<path fill="#000000" opacity="1.000000" stroke="none" 
	d="
M239.734024,176.918152 
	C228.568054,173.475189 220.836197,167.084351 218.351807,155.644897 
	C215.526611,142.636200 224.813431,129.475037 237.453522,125.367828 
	C250.006592,121.288910 266.185364,128.837051 271.132080,138.164703 
	C277.969879,151.058228 272.749115,168.007141 259.574371,174.264725 
	C253.271851,177.258224 246.861481,177.780609 239.734024,176.918152 
M266.813141,147.845093 
	C265.841736,139.306595 260.514740,133.581238 250.948593,130.794128 
	C244.141983,128.811005 233.910797,132.280731 229.398254,138.102570 
	C224.118286,144.914490 223.511871,155.808380 228.074966,161.873550 
	C234.350647,170.215042 244.226425,173.454056 254.274277,169.525146 
	C262.302917,166.385803 267.892944,160.585312 266.813141,147.845093 
z"/>
<path fill="#000000" opacity="1.000000" stroke="none" 
	d="
M103.580322,145.709290 
	C106.608261,145.884735 106.885414,147.612778 106.587509,149.612762 
	C106.265053,151.777451 104.575912,152.030472 102.828423,152.039047 
	C97.496880,152.065216 92.158249,152.231094 86.835876,152.013077 
	C82.910629,151.852295 81.203743,152.936844 81.212723,157.297134 
	C81.240334,170.693558 81.068291,170.692307 94.598160,170.687805 
	C97.430595,170.686859 100.263359,170.732361 103.095352,170.700531 
	C105.247513,170.676346 106.646393,171.425049 106.664261,173.811447 
	C106.680763,176.014603 105.721725,177.254333 103.392746,177.251190 
	C94.729286,177.239487 86.065804,177.243057 77.402328,177.249313 
	C74.755905,177.251221 73.952461,175.585388 73.947716,173.334183 
	C73.916115,158.339249 73.930038,143.344208 73.896248,128.349289 
	C73.889610,125.403580 75.396675,124.074135 78.199600,124.069351 
	C86.529694,124.055138 94.860085,124.046196 103.189827,124.107468 
	C105.417686,124.123848 107.156578,124.942642 106.978386,127.637863 
	C106.812210,130.151352 105.011559,130.393753 103.052879,130.392319 
	C97.387901,130.388153 91.719681,130.503448 86.059174,130.343674 
	C82.770920,130.250870 81.181526,131.180283 81.256340,134.832077 
	C81.520958,147.749252 79.944565,145.440231 91.634415,145.661972 
	C95.465309,145.734619 99.298531,145.684418 103.580322,145.709290 
z"/>
<path fill="#000000" opacity="1.000000" stroke="none" 
	d="
M191.319855,130.376816 
	C182.762878,131.744064 176.420715,135.365646 172.521713,143.145477 
	C166.060989,156.036758 178.181152,171.135620 190.298676,170.843979 
	C197.294250,170.675613 203.928391,170.383575 209.290298,165.222839 
	C211.350388,163.240036 213.174850,163.745651 214.789520,165.742279 
	C216.548035,167.916763 214.627014,169.088257 213.314117,170.216721 
	C200.617325,181.129700 177.620697,180.179337 168.068085,164.706314 
	C158.786606,149.672501 165.768051,131.058685 182.746582,125.732025 
	C192.972183,122.523964 202.357224,124.133972 211.183884,129.922806 
	C212.010803,130.465134 212.906036,131.031021 213.481857,131.801086 
	C214.566971,133.252258 216.934479,134.559799 214.689880,136.791489 
	C212.814301,138.656250 211.092072,138.396133 209.063370,136.637299 
	C204.135910,132.365341 198.464417,129.839584 191.319855,130.376816 
z"/>
<path fill="#000000" opacity="1.000000" stroke="none" 
	d="
M159.158340,130.868958 
	C160.907120,132.770325 163.523010,134.285583 161.113907,136.862305 
	C158.755600,139.384720 156.784607,137.703629 154.731995,135.938736 
	C141.627014,124.670616 121.071236,131.244995 117.758644,147.708237 
	C115.714691,157.866486 123.788757,169.307465 134.332031,170.513382 
	C141.645218,171.349823 149.026917,171.362778 155.040543,165.825195 
	C157.099792,163.928955 159.538681,163.038956 161.467850,165.705338 
	C163.622910,168.683929 160.475098,169.695145 158.831970,171.009903 
	C145.884033,181.370499 125.699402,179.063309 115.516304,166.116287 
	C104.643814,152.292755 112.667763,129.999557 129.627075,125.588615 
	C140.406891,122.784904 149.924332,124.267899 159.158340,130.868958 
z"/>
<path fill="#000000" opacity="1.000000" stroke="none" 
	d="
M38.954033,159.995728 
	C38.945511,149.515869 38.951046,139.534851 38.918438,129.553970 
	C38.909683,126.873299 39.139000,124.412796 42.631474,124.253487 
	C46.398945,124.081627 46.298599,126.729477 46.296844,129.333115 
	C46.288784,141.310272 46.427025,153.289429 46.236370,165.263458 
	C46.172684,169.263351 47.272652,171.086105 51.558849,170.758698 
	C55.527191,170.455582 59.538227,170.719421 63.530457,170.717773 
	C65.676125,170.716888 67.049896,171.522675 67.062363,173.896042 
	C67.074318,176.171417 65.926880,177.252121 63.694645,177.252762 
	C56.708527,177.254761 49.722382,177.265091 42.736309,177.246658 
	C39.907047,177.239197 39.026070,175.386551 38.987171,172.969955 
	C38.920258,168.812408 38.959236,164.653152 38.954033,159.995728 
z"/>
</svg>