<svg version="1.1" id="Layer_1" xmlns="http://www.w3.org/2000/svg" xmlns:xlink="http://www.w3.org/1999/xlink" x="0px" y="0px"
	 width="100%" viewBox="0 0 335 338" enable-background="new 0 0 335 338" xml:space="preserve">
<path fill="#FFFEFE" opacity="1.000000" stroke="none" 
	d="
M184.000000,339.000000 
	C122.666679,339.000000 61.833355,339.000000 1.000025,339.000000 
	C1.000016,226.333359 1.000016,113.666725 1.000008,1.000070 
	C112.666618,1.000046 224.333237,1.000046 335.999878,1.000023 
	C335.999939,113.666595 335.999939,226.333191 335.999969,338.999878 
	C285.500000,339.000000 235.000000,339.000000 184.000000,339.000000 
M168.901535,291.058533 
	C174.063736,303.488007 179.225922,315.917480 184.780121,329.290802 
	C190.449890,320.969604 195.601746,314.139374 199.915009,306.815247 
	C202.681732,302.117279 205.571060,301.200256 210.700745,302.587341 
	C219.230927,304.893921 227.999649,306.318268 237.317093,308.248657 
	C236.175171,305.390656 235.379623,303.392822 234.579086,301.396973 
	C227.714813,284.283173 220.849625,267.169769 214.619339,249.733078 
	C216.107635,247.462708 218.076981,245.366745 218.977448,242.883224 
	C220.531952,238.595840 223.084579,235.659973 227.494141,234.589218 
	C232.886536,233.279846 235.358414,229.910599 234.961884,224.466431 
	C234.609680,219.630722 236.592239,216.068954 240.609680,213.580017 
	C244.937897,210.898560 246.492599,207.052414 244.424606,202.492920 
	C241.920944,196.972931 243.752777,192.205734 246.955948,188.237915 
	C249.978287,184.494049 249.280563,181.315689 246.893936,178.411652 
	C243.215302,173.935547 242.557526,169.479187 244.622940,164.143723 
	C245.962906,160.682297 245.759003,156.736938 242.134583,154.844696 
	C236.457275,151.880630 234.754532,147.275177 234.931427,141.417221 
	C235.064468,137.011932 232.897583,133.833420 228.760010,133.049515 
	C222.808136,131.921860 220.202148,128.097168 218.681335,122.882835 
	C217.685501,119.468369 215.478760,117.819885 211.825287,117.772079 
	C205.886276,117.694366 200.946259,115.478622 197.574875,110.345840 
	C194.977997,106.392227 190.829239,105.814903 187.138123,107.234779 
	C181.844406,109.271149 177.191269,108.106956 173.418945,105.031013 
	C169.496185,101.832413 166.235748,102.318657 162.776123,104.777527 
	C158.575195,107.763275 154.455643,108.839294 149.247864,107.240028 
	C145.810638,106.184494 141.385330,105.502434 138.980209,109.697044 
	C135.590714,115.608505 129.956085,117.157059 123.943893,117.693832 
	C120.226730,118.025696 118.080719,119.627975 117.259315,123.083565 
	C116.074150,128.069458 113.215820,131.399689 108.154396,132.588211 
	C102.896935,133.822754 100.586258,137.260269 101.057076,142.428787 
	C101.495071,147.237015 99.778938,150.768158 95.733353,153.223358 
	C90.795296,156.220230 89.610939,160.308014 91.836380,165.587341 
	C93.691101,169.987244 92.713631,174.030106 89.665565,177.518082 
	C86.255028,181.420822 86.303406,185.403046 89.390266,189.241882 
	C92.740578,193.408340 93.478043,197.628387 91.515175,202.684311 
	C89.853905,206.963409 90.673340,210.497528 95.233795,213.189636 
	C99.207588,215.535416 101.492172,219.417252 101.058449,224.527557 
	C100.623329,229.654388 102.781464,233.203247 108.105339,234.404907 
	C113.096512,235.531464 115.696556,238.777939 117.322777,243.610153 
	C118.161461,246.102249 120.858665,247.968887 122.613358,250.793671 
	C121.516579,253.392441 120.419647,255.991165 119.323059,258.589996 
	C113.129524,273.268341 106.914719,287.937836 100.786949,302.643555 
	C100.342255,303.710754 100.530151,305.041595 100.423935,306.249847 
	C101.442574,306.272430 102.489197,306.459503 103.475471,306.291748 
	C111.997864,304.842438 120.542137,303.487946 129.004913,301.741821 
	C131.664825,301.192993 132.884521,301.997650 134.189178,304.052094 
	C138.640503,311.061340 143.208435,317.997620 147.820526,324.902527 
	C148.484344,325.896362 149.976166,327.418060 150.490616,327.212006 
	C151.662125,326.742798 152.827026,325.511902 153.357452,324.309479 
	C156.565887,317.036346 159.492874,309.638641 162.723923,302.376038 
	C164.549683,298.272186 166.776917,294.346924 168.901535,291.058533 
M181.721207,86.737068 
	C185.630234,88.717514 189.539261,90.697968 194.333282,93.126778 
	C193.536682,87.913055 193.074310,83.807297 192.263412,79.771568 
	C189.204422,64.547310 189.162704,64.556541 200.043259,53.656548 
	C203.359161,50.334717 206.669937,47.007774 210.638260,43.025703 
	C204.365555,42.002415 199.274673,40.289932 194.280487,40.536404 
	C183.051682,41.090569 178.140244,34.714272 174.760056,25.405243 
	C173.184479,21.066122 170.508591,17.126535 167.928772,12.243702 
	C164.642059,18.616577 161.197006,23.681423 159.345993,29.273870 
	C156.738052,37.153286 151.672668,39.933746 143.850082,40.246063 
	C138.008194,40.479298 132.213669,41.898361 125.594879,42.912418 
	C127.112976,44.649178 127.905937,45.675079 128.818436,46.580532 
	C133.776093,51.499935 138.863388,56.294537 143.670074,61.356190 
	C144.876007,62.626091 145.945892,64.780815 145.810669,66.424606 
	C145.430939,71.040123 144.342316,75.593796 143.624283,80.186089 
	C143.004211,84.151917 142.509018,88.137276 141.821289,93.106270 
	C146.681396,90.641174 150.871048,89.186646 154.267105,86.663826 
	C163.286148,79.963898 172.053268,79.137428 181.721207,86.737068 
M119.350883,83.794777 
	C119.012512,83.223083 118.754936,82.227905 118.323204,82.145531 
	C114.239456,81.366356 110.145180,80.402000 106.015793,80.170113 
	C101.916321,79.939903 99.206787,78.641037 97.552002,74.631332 
	C95.665024,70.059036 93.155304,65.743752 90.423553,60.342678 
	C87.742104,65.646103 85.361382,69.971313 83.345505,74.460358 
	C81.664833,78.202980 79.236183,79.978485 74.974251,80.172935 
	C70.321968,80.385201 65.712402,81.533371 61.084213,82.273590 
	C60.957222,82.760574 60.830235,83.247566 60.703247,83.734558 
	C64.564560,87.379402 68.657440,90.818405 72.171638,94.771812 
	C73.550781,96.323326 74.326332,99.077347 74.170982,101.195282 
	C73.787903,106.417862 72.706718,111.589241 71.700279,118.116631 
	C77.390526,115.224319 82.050980,113.111778 86.437584,110.533348 
	C89.242393,108.884689 91.579102,108.928551 94.318924,110.471039 
	C98.902710,113.051659 103.615707,115.402756 109.217026,118.345764 
	C108.592339,114.367096 108.464226,111.357750 107.615936,108.567337 
	C105.251732,100.790344 106.577171,94.437157 113.599953,89.618629 
	C115.624252,88.229706 117.164246,86.134926 119.350883,83.794777 
M228.268814,108.653069 
	C227.817657,111.519936 227.366486,114.386795 226.756805,118.260956 
	C231.869751,115.624031 236.127075,113.780609 240.000885,111.330788 
	C243.823746,108.913208 247.080399,108.779648 250.963120,111.261543 
	C254.882614,113.766937 259.237549,115.591103 264.368713,118.206627 
	C263.350525,111.815063 262.820099,106.690811 261.640289,101.720703 
	C260.875336,98.498245 261.667328,96.438210 264.006165,94.295662 
	C267.968323,90.666054 271.659027,86.740128 275.990631,82.412430 
	C270.017029,81.494194 265.121155,80.530403 260.178314,80.050797 
	C256.440002,79.688065 254.196198,78.116997 252.717194,74.600418 
	C250.788040,70.013542 248.302368,65.660736 245.605728,60.314175 
	C242.626892,66.175507 240.553848,71.111290 237.679520,75.525299 
	C236.370407,77.535660 233.655426,79.195488 231.266174,79.819054 
	C226.404556,81.087860 221.331100,81.544937 215.105698,82.533234 
	C219.843170,87.211571 223.900970,90.855301 227.463867,94.931602 
	C228.734299,96.385071 229.198105,98.863976 229.318375,100.916527 
	C229.451630,103.190445 228.770309,105.512093 228.268814,108.653069 
M50.063961,133.564880 
	C48.935863,136.690002 46.980728,138.205368 43.391773,138.298004 
	C39.860172,138.389175 36.354198,139.473068 32.227818,140.233658 
	C36.146790,144.416397 41.083729,147.512161 42.467110,151.764099 
	C43.893768,156.149063 41.861568,161.659378 41.247822,167.594437 
	C45.057514,165.709793 48.268326,164.395187 51.185772,162.603027 
	C54.254620,160.717880 56.900604,160.807205 59.929272,162.683243 
	C62.800308,164.461624 65.963387,165.768555 69.911285,167.738525 
	C69.328789,163.259705 69.327759,159.871887 68.373718,156.777939 
	C67.200348,152.972702 68.301285,150.488007 71.124977,148.045120 
	C73.647644,145.862656 75.803940,143.256699 78.121902,140.837616 
	C78.151237,140.375977 78.180580,139.914352 78.209915,139.452713 
	C66.017502,140.492935 58.520470,135.255463 56.334122,122.917641 
	C55.931389,123.165901 55.528656,123.414169 55.125923,123.662430 
	C53.574558,126.748260 52.023193,129.834091 50.063961,133.564880 
M264.692963,147.946365 
	C267.929016,150.288818 268.658417,153.228455 267.563873,157.107712 
	C266.698730,160.173889 266.638916,163.467270 266.080048,167.741333 
	C270.060089,165.735718 273.103973,164.467621 275.861908,162.742371 
	C279.046997,160.749878 281.846039,160.719955 285.064392,162.728622 
	C287.922638,164.512527 291.123993,165.746643 294.848083,167.549911 
	C294.152161,161.677597 292.025665,156.277527 293.422607,152.038559 
	C294.855896,147.689209 299.734100,144.475098 303.614166,140.203140 
	C299.472015,139.420792 296.235535,138.349701 292.987335,138.312973 
	C288.972107,138.267563 287.022827,136.210892 285.499786,132.976166 
	C284.020325,129.834045 282.320587,126.795616 280.397369,123.095589 
	C278.313873,127.151245 276.537354,130.155991 275.198853,133.344620 
	C273.905243,136.426300 272.096497,138.076263 268.559235,138.279572 
	C265.055054,138.480988 261.595520,139.459381 258.116425,140.096970 
	C257.895752,140.613998 257.675079,141.131012 257.454376,141.648041 
	C259.693665,143.574692 261.932922,145.501328 264.692963,147.946365 
z"/>
<path fill="#CD3341" opacity="1.000000" stroke="none" 
	d="
M122.716110,250.118134 
	C120.858665,247.968887 118.161461,246.102249 117.322777,243.610153 
	C115.696556,238.777939 113.096512,235.531464 108.105339,234.404907 
	C102.781464,233.203247 100.623329,229.654388 101.058449,224.527557 
	C101.492172,219.417252 99.207588,215.535416 95.233795,213.189636 
	C90.673340,210.497528 89.853905,206.963409 91.515175,202.684311 
	C93.478043,197.628387 92.740578,193.408340 89.390266,189.241882 
	C86.303406,185.403046 86.255028,181.420822 89.665565,177.518082 
	C92.713631,174.030106 93.691101,169.987244 91.836380,165.587341 
	C89.610939,160.308014 90.795296,156.220230 95.733353,153.223358 
	C99.778938,150.768158 101.495071,147.237015 101.057076,142.428787 
	C100.586258,137.260269 102.896935,133.822754 108.154396,132.588211 
	C113.215820,131.399689 116.074150,128.069458 117.259315,123.083565 
	C118.080719,119.627975 120.226730,118.025696 123.943893,117.693832 
	C129.956085,117.157059 135.590714,115.608505 138.980209,109.697044 
	C141.385330,105.502434 145.810638,106.184494 149.247864,107.240028 
	C154.455643,108.839294 158.575195,107.763275 162.776123,104.777527 
	C166.235748,102.318657 169.496185,101.832413 173.418945,105.031013 
	C177.191269,108.106956 181.844406,109.271149 187.138123,107.234779 
	C190.829239,105.814903 194.977997,106.392227 197.574875,110.345840 
	C200.946259,115.478622 205.886276,117.694366 211.825287,117.772079 
	C215.478760,117.819885 217.685501,119.468369 218.681335,122.882835 
	C220.202148,128.097168 222.808136,131.921860 228.760010,133.049515 
	C232.897583,133.833420 235.064468,137.011932 234.931427,141.417221 
	C234.754532,147.275177 236.457275,151.880630 242.134583,154.844696 
	C245.759003,156.736938 245.962906,160.682297 244.622940,164.143723 
	C242.557526,169.479187 243.215302,173.935547 246.893936,178.411652 
	C249.280563,181.315689 249.978287,184.494049 246.955948,188.237915 
	C243.752777,192.205734 241.920944,196.972931 244.424606,202.492920 
	C246.492599,207.052414 244.937897,210.898560 240.609680,213.580017 
	C236.592239,216.068954 234.609680,219.630722 234.961884,224.466431 
	C235.358414,229.910599 232.886536,233.279846 227.494141,234.589218 
	C223.084579,235.659973 220.531952,238.595840 218.977448,242.883224 
	C218.076981,245.366745 216.107635,247.462708 213.879028,249.886017 
	C208.786438,251.200607 202.808655,250.992676 200.429245,253.816635 
	C195.851425,259.249725 191.584213,262.223206 184.576065,259.969452 
	C184.122223,259.823517 183.589661,259.922363 182.830444,259.640076 
	C179.413788,260.430145 175.872635,260.905121 173.200134,262.684662 
	C169.426682,265.197296 166.473358,265.399994 162.853012,262.594666 
	C159.260773,259.811157 155.192810,257.623627 150.418777,259.785461 
	C145.203491,262.147064 140.863159,261.044617 137.917572,256.297180 
	C134.252975,250.390884 128.581680,250.196213 122.716110,250.118134 
M109.226044,199.122955 
	C114.132454,213.631210 120.842918,226.948364 135.027542,234.565765 
	C144.842010,239.836334 154.521347,245.844666 166.575684,244.279938 
	C171.603073,243.627380 177.008713,244.628098 181.740341,243.206345 
	C193.573395,239.650757 204.490494,234.103653 212.801605,224.487534 
	C227.308548,207.702682 232.615341,188.517960 226.364151,167.055786 
	C219.843796,144.669495 204.787079,129.783142 182.201157,124.545143 
	C137.211090,114.111275 98.990242,153.104431 109.226044,199.122955 
z"/>
<path fill="#9C2138" opacity="1.000000" stroke="none" 
	d="
M122.664734,250.455902 
	C128.581680,250.196213 134.252975,250.390884 137.917572,256.297180 
	C140.863159,261.044617 145.203491,262.147064 150.418777,259.785461 
	C155.192810,257.623627 159.260773,259.811157 162.853012,262.594666 
	C166.473358,265.399994 169.426682,265.197296 173.200134,262.684662 
	C175.872635,260.905121 179.413788,260.430145 182.465195,259.702118 
	C181.696091,260.483490 180.668961,260.788696 180.415741,261.409607 
	C176.492416,271.029358 172.669510,280.690033 168.823303,290.341248 
	C166.776917,294.346924 164.549683,298.272186 162.723923,302.376038 
	C159.492874,309.638641 156.565887,317.036346 153.357452,324.309479 
	C152.827026,325.511902 151.662125,326.742798 150.490616,327.212006 
	C149.976166,327.418060 148.484344,325.896362 147.820526,324.902527 
	C143.208435,317.997620 138.640503,311.061340 134.189178,304.052094 
	C132.884521,301.997650 131.664825,301.192993 129.004913,301.741821 
	C120.542137,303.487946 111.997864,304.842438 103.475471,306.291748 
	C102.489197,306.459503 101.442574,306.272430 100.423935,306.249847 
	C100.530151,305.041595 100.342255,303.710754 100.786949,302.643555 
	C106.914719,287.937836 113.129524,273.268341 119.323059,258.589996 
	C120.419647,255.991165 121.516579,253.392441 122.664734,250.455902 
z"/>
<path fill="#F2BD2D" opacity="1.000000" stroke="none" 
	d="
M181.395264,86.556458 
	C172.053268,79.137428 163.286148,79.963898 154.267105,86.663826 
	C150.871048,89.186646 146.681396,90.641174 141.821289,93.106270 
	C142.509018,88.137276 143.004211,84.151917 143.624283,80.186089 
	C144.342316,75.593796 145.430939,71.040123 145.810669,66.424606 
	C145.945892,64.780815 144.876007,62.626091 143.670074,61.356190 
	C138.863388,56.294537 133.776093,51.499935 128.818436,46.580532 
	C127.905937,45.675079 127.112976,44.649178 125.594879,42.912418 
	C132.213669,41.898361 138.008194,40.479298 143.850082,40.246063 
	C151.672668,39.933746 156.738052,37.153286 159.345993,29.273870 
	C161.197006,23.681423 164.642059,18.616577 167.928772,12.243702 
	C170.508591,17.126535 173.184479,21.066122 174.760056,25.405243 
	C178.140244,34.714272 183.051682,41.090569 194.280487,40.536404 
	C199.274673,40.289932 204.365555,42.002415 210.638260,43.025703 
	C206.669937,47.007774 203.359161,50.334717 200.043259,53.656548 
	C189.162704,64.556541 189.204422,64.547310 192.263412,79.771568 
	C193.074310,83.807297 193.536682,87.913055 194.333282,93.126778 
	C189.539261,90.697968 185.630234,88.717514 181.395264,86.556458 
z"/>
<path fill="#801732" opacity="1.000000" stroke="none" 
	d="
M168.862427,290.699890 
	C172.669510,280.690033 176.492416,271.029358 180.415741,261.409607 
	C180.668961,260.788696 181.696091,260.483490 182.728455,259.969360 
	C183.589661,259.922363 184.122223,259.823517 184.576065,259.969452 
	C191.584213,262.223206 195.851425,259.249725 200.429245,253.816635 
	C202.808655,250.992676 208.786438,251.200607 213.561722,250.047592 
	C220.849625,267.169769 227.714813,284.283173 234.579086,301.396973 
	C235.379623,303.392822 236.175171,305.390656 237.317093,308.248657 
	C227.999649,306.318268 219.230927,304.893921 210.700745,302.587341 
	C205.571060,301.200256 202.681732,302.117279 199.915009,306.815247 
	C195.601746,314.139374 190.449890,320.969604 184.780121,329.290802 
	C179.225922,315.917480 174.063736,303.488007 168.862427,290.699890 
z"/>
<path fill="#F1BE31" opacity="1.000000" stroke="none" 
	d="
M119.138580,84.079269 
	C117.164246,86.134926 115.624252,88.229706 113.599953,89.618629 
	C106.577171,94.437157 105.251732,100.790344 107.615936,108.567337 
	C108.464226,111.357750 108.592339,114.367096 109.217026,118.345764 
	C103.615707,115.402756 98.902710,113.051659 94.318924,110.471039 
	C91.579102,108.928551 89.242393,108.884689 86.437584,110.533348 
	C82.050980,113.111778 77.390526,115.224319 71.700279,118.116631 
	C72.706718,111.589241 73.787903,106.417862 74.170982,101.195282 
	C74.326332,99.077347 73.550781,96.323326 72.171638,94.771812 
	C68.657440,90.818405 64.564560,87.379402 60.703247,83.734558 
	C60.830235,83.247566 60.957222,82.760574 61.084213,82.273590 
	C65.712402,81.533371 70.321968,80.385201 74.974251,80.172935 
	C79.236183,79.978485 81.664833,78.202980 83.345505,74.460358 
	C85.361382,69.971313 87.742104,65.646103 90.423553,60.342678 
	C93.155304,65.743752 95.665024,70.059036 97.552002,74.631332 
	C99.206787,78.641037 101.916321,79.939903 106.015793,80.170113 
	C110.145180,80.402000 114.239456,81.366356 118.323204,82.145531 
	C118.754936,82.227905 119.012512,83.223083 119.138580,84.079269 
z"/>
<path fill="#F1BE30" opacity="1.000000" stroke="none" 
	d="
M228.356247,108.233017 
	C228.770309,105.512093 229.451630,103.190445 229.318375,100.916527 
	C229.198105,98.863976 228.734299,96.385071 227.463867,94.931602 
	C223.900970,90.855301 219.843170,87.211571 215.105698,82.533234 
	C221.331100,81.544937 226.404556,81.087860 231.266174,79.819054 
	C233.655426,79.195488 236.370407,77.535660 237.679520,75.525299 
	C240.553848,71.111290 242.626892,66.175507 245.605728,60.314175 
	C248.302368,65.660736 250.788040,70.013542 252.717194,74.600418 
	C254.196198,78.116997 256.440002,79.688065 260.178314,80.050797 
	C265.121155,80.530403 270.017029,81.494194 275.990631,82.412430 
	C271.659027,86.740128 267.968323,90.666054 264.006165,94.295662 
	C261.667328,96.438210 260.875336,98.498245 261.640289,101.720703 
	C262.820099,106.690811 263.350525,111.815063 264.368713,118.206627 
	C259.237549,115.591103 254.882614,113.766937 250.963120,111.261543 
	C247.080399,108.779648 243.823746,108.913208 240.000885,111.330788 
	C236.127075,113.780609 231.869751,115.624031 226.756805,118.260956 
	C227.366486,114.386795 227.817657,111.519936 228.356247,108.233017 
z"/>
<path fill="#F1BE32" opacity="1.000000" stroke="none" 
	d="
M50.267891,133.242401 
	C52.023193,129.834091 53.574558,126.748260 55.125923,123.662430 
	C55.528656,123.414169 55.931389,123.165901 56.334122,122.917641 
	C58.520470,135.255463 66.017502,140.492935 78.209915,139.452713 
	C78.180580,139.914352 78.151237,140.375977 78.121902,140.837616 
	C75.803940,143.256699 73.647644,145.862656 71.124977,148.045120 
	C68.301285,150.488007 67.200348,152.972702 68.373718,156.777939 
	C69.327759,159.871887 69.328789,163.259705 69.911285,167.738525 
	C65.963387,165.768555 62.800308,164.461624 59.929272,162.683243 
	C56.900604,160.807205 54.254620,160.717880 51.185772,162.603027 
	C48.268326,164.395187 45.057514,165.709793 41.247822,167.594437 
	C41.861568,161.659378 43.893768,156.149063 42.467110,151.764099 
	C41.083729,147.512161 36.146790,144.416397 32.227818,140.233658 
	C36.354198,139.473068 39.860172,138.389175 43.391773,138.298004 
	C46.980728,138.205368 48.935863,136.690002 50.267891,133.242401 
z"/>
<path fill="#F0BE32" opacity="1.000000" stroke="none" 
	d="
M264.432587,147.687164 
	C261.932922,145.501328 259.693665,143.574692 257.454376,141.648041 
	C257.675079,141.131012 257.895752,140.613998 258.116425,140.096970 
	C261.595520,139.459381 265.055054,138.480988 268.559235,138.279572 
	C272.096497,138.076263 273.905243,136.426300 275.198853,133.344620 
	C276.537354,130.155991 278.313873,127.151245 280.397369,123.095589 
	C282.320587,126.795616 284.020325,129.834045 285.499786,132.976166 
	C287.022827,136.210892 288.972107,138.267563 292.987335,138.312973 
	C296.235535,138.349701 299.472015,139.420792 303.614166,140.203140 
	C299.734100,144.475098 294.855896,147.689209 293.422607,152.038559 
	C292.025665,156.277527 294.152161,161.677597 294.848083,167.549911 
	C291.123993,165.746643 287.922638,164.512527 285.064392,162.728622 
	C281.846039,160.719955 279.046997,160.749878 275.861908,162.742371 
	C273.103973,164.467621 270.060089,165.735718 266.080048,167.741333 
	C266.638916,163.467270 266.698730,160.173889 267.563873,157.107712 
	C268.658417,153.228455 267.929016,150.288818 264.432587,147.687164 
z"/>
<path fill="#FDEBED" opacity="1.000000" stroke="none" 
	d="
M109.151062,198.716888 
	C98.990242,153.104431 137.211090,114.111275 182.201157,124.545143 
	C204.787079,129.783142 219.843796,144.669495 226.364151,167.055786 
	C232.615341,188.517960 227.308548,207.702682 212.801605,224.487534 
	C204.490494,234.103653 193.573395,239.650757 181.740341,243.206345 
	C177.008713,244.628098 171.603073,243.627380 166.575684,244.279938 
	C154.521347,245.844666 144.842010,239.836334 135.027542,234.565765 
	C120.842918,226.948364 114.132454,213.631210 109.151062,198.716888 
M220.902161,169.253815 
	C214.580109,150.345901 202.891388,137.427444 183.027328,131.470795 
	C174.776474,128.996613 166.928925,128.581924 159.092285,129.789581 
	C128.399338,134.519455 108.847816,162.634476 114.271828,193.333038 
	C121.238327,232.761749 165.399460,250.045227 197.363358,229.660385 
	C210.199799,221.473999 218.669220,209.970917 221.663910,193.921829 
	C221.418213,185.945999 221.172516,177.970154 220.902161,169.253815 
z"/>
<path fill="#CD3140" opacity="1.000000" stroke="none" 
	d="
M221.095093,194.564407 
	C218.669220,209.970917 210.199799,221.473999 197.363358,229.660385 
	C165.399460,250.045227 121.238327,232.761749 114.271828,193.333038 
	C108.847816,162.634476 128.399338,134.519455 159.092285,129.789581 
	C166.928925,128.581924 174.776474,128.996613 183.027328,131.470795 
	C202.891388,137.427444 214.580109,150.345901 220.636337,169.897415 
	C220.612045,178.548813 220.853577,186.556610 221.095093,194.564407 
M156.394272,196.098190 
	C152.859360,192.391022 149.324448,188.683853 146.089722,185.291489 
	C141.974182,189.241730 138.058548,193.000092 133.609711,197.270233 
	C141.661636,204.014542 149.518875,210.595779 157.585266,217.352188 
	C172.845474,198.271347 187.506241,179.940048 202.383057,161.338577 
	C196.985367,157.393753 191.994247,153.746063 186.743118,149.908325 
	C176.626709,165.443069 166.796829,180.537842 156.394272,196.098190 
z"/>
<path fill="#B3333E" opacity="1.000000" stroke="none" 
	d="
M221.379501,194.243118 
	C220.853577,186.556610 220.612045,178.548813 220.648651,170.267670 
	C221.172516,177.970154 221.418213,185.945999 221.379501,194.243118 
z"/>
<path fill="#FEF7F8" opacity="1.000000" stroke="none" 
	d="
M156.680603,195.865402 
	C166.796829,180.537842 176.626709,165.443069 186.743118,149.908325 
	C191.994247,153.746063 196.985367,157.393753 202.383057,161.338577 
	C187.506241,179.940048 172.845474,198.271347 157.585266,217.352188 
	C149.518875,210.595779 141.661636,204.014542 133.609711,197.270233 
	C138.058548,193.000092 141.974182,189.241730 146.089722,185.291489 
	C149.324448,188.683853 152.859360,192.391022 156.680603,195.865402 
z"/>
</svg>