<svg class="svg-icon" style="width: 1em;height: 1em;vertical-align: middle;fill: currentColor;overflow: hidden;" viewBox="0 0 1024 1024" version="1.1" xmlns="http://www.w3.org/2000/svg"><path d="M744.903111 56.888889c25.486222 0 42.382222 26.453333 31.687111 49.607111l-123.164444 265.728h188.359111c28.785778 0 44.430222 32.369778 28.842667 54.670222l-3.527112 4.323556-512.796444 537.998222c-24.462222 25.713778-67.299556 2.673778-59.278222-31.971556l70.599111-304.924444H205.596444a34.929778 34.929778 0 0 1-34.645333-39.424l1.137778-5.12 145.692444-505.628444A34.929778 34.929778 0 0 1 351.345778 56.888889z m-54.613333 69.802667H377.514667L252.017778 562.517333H409.6c20.707556 0 36.465778 17.806222 34.816 37.774223l-0.796444 5.006222-51.768889 223.288889 368.469333-386.56h-161.507556a34.929778 34.929778 0 0 1-33.564444-44.544l1.934222-5.006223 123.050667-265.784888z m-207.644445 107.008c21.617778 5.404444 34.702222 27.249778 29.297778 48.810666L454.769778 443.335111a40.220444 40.220444 0 0 1-77.994667-19.512889l57.173333-160.824889a40.220444 40.220444 0 0 1 48.753778-29.297777z" fill="#F38700" /></svg>