<svg class="svg-icon" style="width: 1em; height: 1em;vertical-align: middle;fill: currentColor;overflow: hidden;" viewBox="0 0 1024 1024" version="1.1" xmlns="http://www.w3.org/2000/svg"><path d="M512 512m-448 0a448 448 0 1 0 896 0 448 448 0 1 0-896 0Z" fill="#57E087" /><path d="M635.199 627.91a24.88 24.88 0 0 1 27.373-6.087l118.107 47.156c9.222 3.682 13.716 14.15 10.036 23.38a18 18 0 0 1-0.587 1.317l-36.909 74.584-0.392-0.123C745.63 782.298 730.933 792 713.97 792a43.87 43.87 0 0 1-6.626-0.501C450.3 780.042 243.949 573.527 232.5 316.28c-0.33-2.162-0.501-4.377-0.501-6.631 0-16.856 9.557-31.477 23.544-38.733l-0.033-0.105 74.525-36.938c8.898-4.41 19.683-0.766 24.09 8.139a18 18 0 0 1 0.588 1.318l47.119 118.199a24.927 24.927 0 0 1-6.083 27.395l-42.506 39.935c-4.385 4.426-7.012 8.263-7.882 11.513-0.68 2.54-0.585 5.84 0.285 9.898a336.604 336.604 0 0 0 3.388 10.716c0.846 2.141 1.821 4.41 2.928 6.805l-1.475-2.556c33.889 96.97 110.551 173.838 207.352 207.95l-1.53-0.885c1.226 0.567 2.418 1.1 3.577 1.598a335.958 335.958 0 0 0 16.231 5.146c3.02 0.455 5.55 0.41 7.59-0.138 2.409-0.646 5.14-2.26 8.196-4.841l43.295-46.154z" fill="#F0F7F1" /><path d="M588.185 771.532C389.128 712.5 242.113 532.272 232.5 316.28c-0.33-2.162-0.501-4.377-0.501-6.631 0-16.856 9.557-31.477 23.544-38.733l-0.033-0.105 74.525-36.938c8.898-4.41 19.683-0.766 24.09 8.139a18 18 0 0 1 0.588 1.318l47.119 118.199a24.927 24.927 0 0 1-6.083 27.395l-42.506 39.935c-4.385 4.426-7.012 8.263-7.882 11.513-0.68 2.54-0.585 5.84 0.285 9.898a336.604 336.604 0 0 0 3.388 10.716c0.846 2.141 1.821 4.41 2.928 6.805l-1.475-2.556a337.308 337.308 0 0 0 20.255 46.423c35.311 126.27 110.035 213.09 217.442 259.874z" fill="#DAF1E2" /><path d="M363.152 630.742C286.451 547.19 237.89 437.354 232.501 316.28c-0.33-2.162-0.501-4.377-0.501-6.631 0-16.856 9.557-31.477 23.544-38.733l-0.033-0.105 74.525-36.938c8.898-4.41 19.683-0.766 24.09 8.139a18 18 0 0 1 0.588 1.318l47.119 118.199a24.927 24.927 0 0 1-6.083 27.395l-42.506 39.935c-4.385 4.426-7.012 8.263-7.882 11.513-0.557 2.08-0.594 4.668-0.112 7.764-0.81 1.853-1.333 3.983-1.545 6.415A455.858 455.858 0 0 0 342 494c0 47.676 7.414 93.62 21.152 136.742z" fill="#FFFFFF" /></svg>