<svg class="svg-icon" style="width: 1em; height: 1em;vertical-align: middle;fill: currentColor;overflow: hidden;" viewBox="0 0 1024 1024" version="1.1" xmlns="http://www.w3.org/2000/svg"><path d="M863.2 218.2c0 0.1 0 0-0.1 0-0.3-0.2-0.7-0.3-1.1-0.4h-0.2c-0.7-0.2-1.4-0.2-2.2-0.1L174 314c-0.7 0.1-1.4 0.3-2 0.6-0.2 0.1-0.3 0.2-0.5 0.3-0.1 0-0.2 0.1-0.2 0.1-0.1 0.1-0.2 0.1-0.4 0.2-0.3 0.2-0.6 0.4-0.8 0.6s-0.5 0.4-0.7 0.7l-0.2 0.2-0.1 0.1c-0.1 0.2-0.2 0.3-0.4 0.5-0.2 0.3-0.4 0.6-0.5 0.9-0.2 0.4-0.4 0.7-0.5 1.1-0.3 0.9-0.5 1.9-0.5 2.9l-0.5 277.4-74.1 154.8c-10.4 21.7-2.4 47.7 18.3 59.9l58.2 34.1c0.1 0.1 0.2 0.2 0.3 0.2l40.9 22.3c-1.9-1-3.1-3.2-3.1-5.7l1-520.7c0-1 0.2-2 0.5-2.9 0.3-0.9 0.8-1.7 1.4-2.4l0.1-0.1c0.6-0.7 1.3-1.3 2-1.7 0.1 0 0.2-0.1 0.2-0.1 0.8-0.4 1.6-0.8 2.5-0.9l685.5-96.3c0.8-0.1 1.5 0 2.2 0.1 0.5 0.1 1 0.3 1.4 0.4l-40.8-22.4z" fill="#203040" /><path d="M899.1 238.9c3.7-0.5 6.8 2.3 6.8 6.4l-1 521.5c0 4-3.1 7.7-6.8 8.3L213 871.6c-3.8 0.5-6.8-2.3-6.8-6.4l1-521.5c0-4.1 3-7.7 6.8-8.3l685.1-96.5z" fill="#344D66" /><path d="M873.3 260.6c3.5-0.5 6.3 2.1 6.3 6v401c0 3.8-2.9 7.2-6.4 7.7l-632.6 89.1c-3.5 0.5-6.3-2.2-6.3-6v-401c0-3.8 2.8-7.2 6.4-7.7l632.6-89.1z" fill="#7BB7FF" /><path d="M783 306.7l-0.1 33.1-6.1 0.8 0.1-28.2v-0.2l-8.7 29.6-5.5 0.8-8-27.3v0.2l-0.1 28.3-6.1 0.8 0.1-33 10.7-1.5 6.3 23.2h0.1l7-25.1zM806.4 303.4l10.5 31.6-6.6 0.9-2.1-6.7-12.1 1.7-2.3 7.3-6.3 0.9 11.2-34.6 7.7-1.1z m-8.7 21.8l8.8-1.2-4.1-13.5h-0.2l-4.5 14.7M844.8 325c0.3 3.2 0.8 5.1 1.5 5.9l-7.1 1c-0.4-1.4-0.8-3.5-1-6.5-0.1-0.9-0.2-1.7-0.2-2.3-0.3-2.8-1.3-4.1-2.8-3.9l-7 1v13.2l-6.5 0.9 0.1-33.1 12.9-1.8c7-0.7 10.5 1.6 10.6 7.1-0.1 4.3-2.2 7.3-6.3 8.9v0.2c3-0.1 4.8 2.1 5.4 6.6 0 0.4 0.1 0.7 0.2 1 0 0.4 0.1 1 0.2 1.8z m-11.1-11.1c3-0.4 4.5-2.2 4.6-5.3-0.1-2.7-1.6-3.9-4.6-3.5l-5.5 0.8v8.8l5.5-0.8" fill="#FF7777" /><path d="M496.9 632.2c10.5-0.9 16.1 3.3 16.6 12.4 0 6.1-5.3 14.7-15.9 25.8-3.1 3-5.7 5.8-7.7 8.5l23.7-3.3v7.7l-34.4 4.8v-10.6c0.7-0.9 2.6-3 5.7-6.4 12-12.7 18-21.1 17.8-25.2-0.3-4.1-2.3-6.1-6-5.9-3.7 0.9-5.7 3.8-6 8.8l-10.6 1.5c0.1-9.9 5.6-15.9 16.8-18.1zM540.5 626.1c11.3-1.2 17.1 7.1 17.5 24.9-0.4 17.4-6.3 27-17.6 29-10.9 1.1-16.4-6.9-16.6-24.2 0.2-17.9 5.8-27.8 16.7-29.7z m0.2 46.8c4.2-0.8 6.3-7.6 6.3-20.3 0-13-2.1-19.2-6.2-18.9-4.4 0.8-6.5 7.7-6.3 20.6-0.3 12.8 1.8 19 6.2 18.6M570.2 633.4l9-1.3V645l-9 1.2zM570.8 667.8l0.1-12.9 9-1.2-0.1 12.8zM608.4 616.5c11.3-1.2 17.1 7.1 17.4 24.9-0.4 17.4-6.2 27-17.5 29-10.9 1.2-16.5-6.9-16.6-24.2 0.2-17.8 5.8-27.7 16.7-29.7z m0.2 46.9c4.2-0.8 6.3-7.6 6.3-20.3 0-13-2.1-19.2-6.2-18.9-4.4 0.8-6.5 7.7-6.3 20.6-0.3 12.8 1.8 19 6.2 18.6M652.1 610.4c11.3-1.2 17.1 7.1 17.4 24.9-0.4 17.4-6.2 27-17.5 29-10.9 1.1-16.4-6.9-16.6-24.2 0.2-17.8 5.8-27.8 16.7-29.7z m0.2 46.8c4.2-0.8 6.3-7.6 6.3-20.3 0-13-2.1-19.2-6.2-18.9-4.4 0.8-6.5 7.7-6.3 20.6-0.3 12.9 1.8 19 6.2 18.6M785.2 616.6c5.4-0.4 8.2 2 8.5 7.1l-5.1 0.7c-0.2-2.7-1.5-3.8-4-3.5-2.6 0.5-3.9 1.9-4 4-0.2 2 1.4 3.1 4.6 3.1l0.5 0.2c5.9 0.4 8.8 2.4 8.7 6.1-0.2 5.6-3.7 9-10.6 10.2-6.6 0.8-9.7-1.7-9.5-7.5l5.4-0.8c0 3.2 1.4 4.6 4.2 4.4 3.2-0.6 4.9-2 5-4.2 0-1.7-1.6-2.8-4.7-3.1l-0.9-0.1c-5.6-0.5-8.3-2.6-8.2-6.2 0-5.5 3.4-8.9 10.1-10.4zM820 612.3v16.8c-0.3 6.7-3.9 10.6-10.8 11.8-7.1 0.8-10.7-2.1-10.9-8.7v-16.8l5.4-0.8v14.6c-0.3 5.8 1.3 8.4 5 7.9 0.2 0 0.3-0.1 0.5-0.1s0.3 0 0.5-0.1c3.5-0.5 5.1-3.5 4.9-9.3V613l5.4-0.7zM847.2 608.5v26.8l-7.6 1.1-9.7-21-0.1 0.2v22.2l-5 0.7v-26.8l8-1.1 9.3 19.8 0.2-0.2v-21z" fill="#FFDCDC" /><path d="M667.7 568.3l-27.3-14.8 0.3-158.3 27.2 14.9z" fill="#FF7777" /><path d="M671.2 364.8L643.9 350l38.3-5.4 27.3 14.9zM623.4 401.4l-27.3-14.8c17-9.2 32.9-21.4 47.8-36.5l27.3 14.8c-14.9 15-30.9 27.2-47.8 36.5z" fill="#FFAFAF" /><path d="M623.4 401.4l-27.3-14.8c5.8-3.2 11.5-6.7 17.1-10.5l27.3 14.8c-5.6 3.8-11.3 7.3-17.1 10.5" fill="#FFAFAF" /><path d="M640.5 390.9L613.2 376c7.1-4.9 14.1-10.5 20.8-16.5l27.3 14.8c-6.8 6.1-13.7 11.6-20.8 16.6" fill="#FFAFAF" /><path d="M661.3 374.3L634 359.5c3.4-3 6.7-6.2 9.9-9.5l27.3 14.8c-3.3 3.4-6.6 6.5-9.9 9.5" fill="#FFAFAF" /><path d="M623.3 442.7L596 427.8l0.1-41.3 27.3 14.9z" fill="#FF7777" /><path d="M709.5 359.5l-0.4 203.1-41.5 5.8 0.3-158.3c-14.2 12.7-29.1 23.6-44.7 32.6l0.1-41.3c17-9.2 32.9-21.4 47.8-36.5l38.4-5.4z" fill="#FFDCDC" /><path d="M312.2 795.8l-6.8-3.7-0.1-0.1c-0.2-0.1-0.5-0.2-0.8-0.3h-0.1c-0.5-0.1-1-0.2-1.5-0.1l-34.2 4.8c-0.5 0.1-1 0.2-1.4 0.4-0.1 0.1-0.2 0.1-0.3 0.2-0.1 0-0.1 0.1-0.2 0.1-0.1 0.1-0.2 0.1-0.3 0.2-0.2 0.1-0.4 0.3-0.6 0.5l-0.5 0.5-0.1 0.1-0.1 0.1c-0.1 0.1-0.2 0.2-0.3 0.4-0.1 0.2-0.3 0.4-0.4 0.6-0.1 0.2-0.2 0.5-0.3 0.7v0.1c-0.2 0.6-0.4 1.3-0.4 2v13.3c0 1.8 0.9 3.3 2.2 4.1l6.8 3.7c-1.3-0.7-2.2-2.2-2.2-4.1V806c0-0.7 0.1-1.4 0.4-2v-0.1c0.2-0.6 0.6-1.2 1-1.7l0.1-0.1c0.4-0.5 0.9-0.9 1.4-1.2 0.1 0 0.1-0.1 0.2-0.1 0.5-0.3 1.1-0.5 1.8-0.6l34.2-4.8c0.5-0.1 1.1 0 1.5 0.1 0.3 0 0.7 0.1 1 0.3z" fill="#7BB7FF" /><path d="M309.6 795.3c2.6-0.4 4.8 1.6 4.8 4.4V813c0 2.8-2.2 5.5-4.8 5.9l-34.2 4.8c-2.6 0.4-4.8-1.7-4.8-4.5v-13.3c0-2.8 2.2-5.4 4.8-5.8l34.2-4.8z" fill="#D5E1FF" /><path d="M752.8 738.6c0.2-0.6 0.3-1.3 0.5-1.9 0.1-0.1 0.1-0.3 0.2-0.4 0.3-0.7 0.6-1.4 1-2.1 0.1-0.2 0.2-0.4 0.4-0.6 0.4-0.6 0.8-1.2 1.2-1.7 0.1-0.2 0.3-0.3 0.4-0.5 0.6-0.7 1.2-1.3 1.8-1.8 0.1-0.1 0.3-0.2 0.4-0.3 0.5-0.4 1.1-0.8 1.6-1.2 0.3-0.2 0.7-0.4 1-0.6l1.2-0.6c1.2-0.5 2.3-0.9 3.6-1.1 1.2-0.2 2.4-0.1 3.5 0 0.2 0 0.5 0.1 0.7 0.1 1.1 0.2 2.2 0.6 3.2 1.1l-6.8-3.7c-0.1-0.1-0.3-0.1-0.4-0.2-0.7-0.3-1.4-0.6-2.2-0.8-0.2 0-0.4 0-0.6-0.1-0.2 0-0.4-0.1-0.7-0.1-1.1-0.2-2.3-0.2-3.5 0-1.3 0.2-2.4 0.6-3.6 1.1-0.1 0.1-0.3 0.1-0.4 0.1-0.3 0.1-0.5 0.3-0.7 0.4-0.3 0.2-0.7 0.4-1 0.6-0.2 0.1-0.3 0.2-0.5 0.3-0.4 0.3-0.7 0.6-1.1 0.9-0.1 0.1-0.3 0.2-0.4 0.3l-0.1 0.1c-0.5 0.4-1 0.9-1.4 1.4-0.1 0.1-0.2 0.2-0.2 0.3-0.1 0.2-0.3 0.3-0.4 0.5-0.2 0.3-0.4 0.5-0.6 0.8-0.2 0.3-0.4 0.6-0.6 1-0.1 0.2-0.2 0.4-0.4 0.6-0.1 0.1-0.1 0.2-0.2 0.3-0.3 0.6-0.6 1.2-0.8 1.8-0.1 0.2-0.1 0.3-0.2 0.5v0.1c-0.2 0.6-0.3 1.2-0.5 1.8-0.1 0.3-0.2 0.7-0.3 1-0.2 1-0.3 2-0.3 3 0 5.3 2.5 9.6 6.4 11.7l6.8 3.7c-3.9-2.1-6.4-6.4-6.4-11.7 0-1 0.1-2 0.3-3-0.1-0.5 0-0.8 0.1-1.1z" fill="#7BB7FF" /><path d="M766 725.8c7.6-1.1 13.7 4.7 13.7 12.9s-6.1 15.7-13.8 16.8c-7.6 1.1-13.8-4.7-13.8-12.9 0.1-8.2 6.3-15.7 13.9-16.8z" fill="#D5E1FF" /><path d="M839.4 726.3c0.2-0.6 0.3-1.3 0.5-1.9 0.1-0.2 0.1-0.3 0.2-0.4 0.3-0.7 0.6-1.4 1-2.1 0.1-0.2 0.2-0.4 0.4-0.6 0.4-0.6 0.8-1.2 1.2-1.7 0.1-0.2 0.3-0.3 0.4-0.5 0.6-0.7 1.2-1.3 1.8-1.8 0.1-0.1 0.3-0.2 0.4-0.3 0.5-0.4 1.1-0.8 1.6-1.2 0.3-0.2 0.7-0.4 1-0.6l1.2-0.6c1.2-0.5 2.3-0.9 3.6-1.1 1.2-0.2 2.4-0.1 3.5 0 0.2 0 0.5 0.1 0.7 0.1 1.1 0.2 2.2 0.6 3.2 1.1l-6.8-3.7c-0.1-0.1-0.3-0.1-0.4-0.2-0.7-0.3-1.4-0.6-2.2-0.8-0.2 0-0.4 0-0.6-0.1-0.2 0-0.5-0.1-0.7-0.1-1.1-0.2-2.3-0.2-3.5 0-1.3 0.2-2.4 0.6-3.6 1.1-0.1 0.1-0.3 0.1-0.4 0.1-0.3 0.1-0.5 0.3-0.7 0.4-0.3 0.2-0.7 0.4-1 0.6-0.2 0.1-0.3 0.2-0.5 0.3-0.4 0.3-0.7 0.6-1.1 0.9-0.1 0.1-0.3 0.2-0.4 0.3l-0.1 0.1c-0.5 0.4-1 0.9-1.4 1.4-0.1 0.1-0.2 0.2-0.2 0.3-0.1 0.2-0.3 0.3-0.4 0.5-0.2 0.3-0.4 0.5-0.6 0.8-0.2 0.3-0.4 0.6-0.6 1-0.1 0.2-0.2 0.4-0.4 0.6-0.1 0.1-0.1 0.2-0.2 0.3-0.3 0.6-0.6 1.2-0.8 1.8-0.1 0.2-0.1 0.3-0.2 0.5v0.1c-0.2 0.6-0.3 1.2-0.5 1.8-0.1 0.3-0.2 0.7-0.3 1-0.2 1-0.3 2-0.3 3 0 5.3 2.5 9.6 6.4 11.7l6.8 3.7c-3.9-2.1-6.4-6.4-6.4-11.7 0-1 0.1-2 0.3-3-0.2-0.4 0-0.8 0.1-1.1z" fill="#7BB7FF" /><path d="M852.6 713.5c7.6-1.1 13.7 4.7 13.7 12.9s-6.1 15.7-13.8 16.8c-7.6 1.1-13.8-4.7-13.8-12.9 0.1-8.2 6.3-15.7 13.9-16.8z" fill="#D5E1FF" /><path d="M301.7 381.9c1-0.1 1.8 0.7 1.8 1.7l-0.6 326.3c0 1.1-0.8 2.1-1.8 2.2l-9.4 1.3c-1 0.1-1.8-0.6-1.8-1.7l0.6-326.3c0-1 0.8-2.1 1.8-2.2l9.4-1.3z" fill="#94CAFF" /><path d="M349.4 376c1-0.1 1.8 0.7 1.8 1.7l-0.3 163.6c0 1.1-0.8 2.1-1.8 2.2l-9.4 1.3c-1 0.1-1.8-0.6-1.8-1.7l0.3-163.6c0-1 0.8-2.1 1.8-2.2l9.4-1.3z" fill="#94CAFF" /><path d="M486.5 566.2l-27.3-14.8 92.4-13 27.3 14.9z" fill="#FFAFAF" /><path d="M532.7 452.7c0.5-1.1 0.9-2.1 1.3-3.1 0.2-0.4 0.4-0.8 0.5-1.2 0.7-1.8 1.1-3.5 1.5-5.1 0.1-0.4 0.2-0.8 0.2-1.2 0.3-1.6 0.4-3.1 0.4-4.4-0.9-10.3-4.5-17.2-10.8-20.6l-27.3-14.8c6.3 3.4 9.9 10.3 10.8 20.6 0.1 1.3-0.1 2.8-0.4 4.4-0.1 0.4-0.1 0.8-0.2 1.2-0.4 1.6-0.8 3.3-1.5 5.1-0.2 0.4-0.4 0.9-0.5 1.3-0.4 1-0.8 2-1.3 3.1l-0.9 1.8c-0.5 1-0.9 1.9-1.5 2.9-0.2 0.3-0.4 0.7-0.6 1-1 1.8-2.1 3.7-3.3 5.7-0.4 0.6-0.8 1.2-1.2 1.9-1.4 2.2-2.9 4.4-4.5 6.8-0.1 0.2-0.2 0.3-0.4 0.5-1.6 2.3-3.4 4.7-5.3 7.2-0.5 0.7-1.1 1.5-1.7 2.2-1.4 1.8-2.9 3.7-4.4 5.6-0.7 0.9-1.4 1.8-2.2 2.7-1.6 2-3.3 4-5 6.1-0.7 0.8-1.3 1.5-1.9 2.3-2.4 2.9-5 5.8-7.6 8.8-0.3 0.4-0.7 0.8-1 1.1-2.7 3.1-5.6 6.3-8.6 9.5-0.9 0.9-1.7 1.9-2.6 2.9-3.4 3.7-6.9 7.4-10.6 11.3-1.8 2-3.6 3.9-5.2 5.8-0.5 0.6-1 1.1-1.5 1.6-1.1 1.2-2.1 2.3-3.1 3.4-0.6 0.7-1.1 1.3-1.7 1.9-0.8 0.9-1.6 1.8-2.4 2.6-0.5 0.6-1 1.1-1.4 1.6-0.7 0.8-1.4 1.6-2.1 2.3-0.2 0.3-0.5 0.6-0.7 0.8-0.1 0.1-0.2 0.2-0.3 0.4-1.3 1.5-2.5 2.8-3.4 3.9-0.2 0.2-0.3 0.3-0.4 0.5-0.9 1.1-1.7 2-2.3 2.7l27.3 14.8c0.5-0.7 1.4-1.6 2.3-2.7 0.2-0.2 0.3-0.3 0.4-0.5 1-1.1 2.1-2.4 3.4-3.9 0.3-0.4 0.7-0.8 1.1-1.2 0.6-0.7 1.3-1.5 2.1-2.3 0.5-0.5 0.9-1 1.4-1.6 0.7-0.8 1.5-1.7 2.4-2.6 0.6-0.6 1.1-1.2 1.7-1.9 1-1.1 2-2.2 3.1-3.4 0.5-0.5 1-1.1 1.5-1.6 1.6-1.8 3.4-3.7 5.2-5.8 3.7-3.9 7.2-7.6 10.6-11.3 0.9-1 1.8-1.9 2.6-2.9 3-3.3 5.9-6.5 8.6-9.5 0.3-0.3 0.5-0.6 0.8-0.9 0.1-0.1 0.1-0.2 0.2-0.2 2.7-3 5.2-6 7.6-8.8 0.7-0.8 1.3-1.5 1.9-2.3 1.7-2.1 3.4-4.1 5-6.1 0.7-0.9 1.4-1.8 2.2-2.7 1.5-1.9 3-3.8 4.4-5.6 0.6-0.7 1.2-1.5 1.7-2.2 1.9-2.5 3.6-4.9 5.2-7.2 0 0 0-0.1 0.1-0.1 0.1-0.1 0.2-0.3 0.3-0.4 1.6-2.4 3.1-4.6 4.5-6.8 0.4-0.6 0.8-1.3 1.2-1.9 1.2-2 2.3-3.9 3.3-5.7 0.1-0.2 0.3-0.5 0.4-0.8 0-0.1 0.1-0.2 0.1-0.2l1.5-3c0.4-0.6 0.8-1.2 1-1.8z" fill="#FF7777" /><path d="M444.9 601.9l-27.3-14.8 0.1-41.3 27.3 14.8zM449.5 440.8c0.1-0.9 0.3-1.7 0.5-2.5 0.3-1.3 0.5-2.6 0.8-3.8 0.2-0.9 0.5-1.7 0.8-2.6 0.3-1.2 0.7-2.3 1.1-3.5 0.2-0.4 0.4-0.8 0.5-1.3 0.8-2 1.6-3.9 2.6-5.8 0.4-0.7 0.7-1.4 1.1-2 0.6-1.1 1.3-2.2 2-3.3 0.5-0.7 0.9-1.4 1.4-2.1 0.7-1 1.5-1.9 2.2-2.8 0.5-0.7 1.1-1.3 1.7-2 1-1.1 2.1-2.2 3.2-3.2 0.5-0.4 0.9-0.9 1.4-1.3 1.8-1.6 3.8-3.2 5.8-4.6 0.9-0.6 1.8-1.2 2.7-1.7 0.8-0.5 1.7-1.1 2.5-1.6 1-0.6 2-1.1 3.1-1.7 0.9-0.5 1.8-1 2.8-1.4 1.1-0.5 2.3-1 3.5-1.6 0.9-0.4 1.8-0.8 2.7-1.1 1.3-0.5 2.7-1 4-1.4l2.7-0.9c1.6-0.5 3.2-0.9 4.8-1.4 0.8-0.2 1.6-0.5 2.4-0.7 2.5-0.6 5-1.2 7.7-1.7 3.8-0.3 7.4-0.4 10.8-0.4 0.9 0 1.7 0 2.5 0.1 3.4 0.1 6.6 0.3 9.7 0.8h0.1c2.7 0.4 5.2 1.1 7.7 1.8 2.1 0.6 4 1.4 5.9 2.2 1.4 0.6 2.9 1.1 4.2 1.8l-27.4-15c-0.5-0.3-1.1-0.6-1.6-0.8-0.8-0.4-1.8-0.6-2.6-0.9-1.9-0.8-3.8-1.6-5.9-2.2-0.5-0.1-0.9-0.4-1.3-0.5-2-0.5-4.2-0.9-6.4-1.3h-0.1c-3-0.5-6.3-0.7-9.7-0.8-0.8 0-1.7 0-2.5-0.1-3.5 0-7 0-10.8 0.4-2.6 0.5-5.2 1.1-7.7 1.7-0.8 0.2-1.6 0.4-2.3 0.7-1.6 0.4-3.3 0.9-4.8 1.4l-2.7 0.9c-1.4 0.5-2.7 0.9-4 1.4-0.9 0.4-1.8 0.8-2.7 1.1-1 0.4-2 0.8-2.9 1.3l-0.6 0.3c-0.9 0.5-1.8 0.9-2.8 1.4s-2.1 1.1-3.1 1.7c-0.9 0.5-1.7 1.1-2.5 1.6-0.7 0.5-1.5 0.9-2.2 1.4-0.2 0.1-0.3 0.3-0.5 0.4-2.1 1.5-4 3-5.8 4.6l-0.2 0.2-1.2 1.2c-1.1 1-2.2 2.1-3.2 3.2-0.1 0.2-0.3 0.3-0.5 0.5l-1.2 1.5c-0.8 0.9-1.5 1.8-2.2 2.8-0.2 0.2-0.4 0.5-0.6 0.7-0.3 0.5-0.6 0.9-0.9 1.4-0.7 1.1-1.4 2.2-2 3.3-0.2 0.4-0.4 0.7-0.6 1s-0.3 0.7-0.5 1c-1 1.9-1.8 3.8-2.6 5.8-0.1 0.3-0.3 0.6-0.4 0.9 0 0.1-0.1 0.2-0.1 0.4-0.4 1.1-0.7 2.3-1.1 3.4-0.3 0.9-0.6 1.7-0.8 2.6-0.3 1.2-0.5 2.5-0.8 3.8-0.2 0.9-0.4 1.7-0.5 2.6-0.2 1.5-0.4 3-0.5 4.5-0.1 0.8-0.2 1.5-0.3 2.3-0.2 2.3-0.3 4.7-0.3 7.1l27.3 14.8c0-2.4 0.1-4.8 0.3-7.1 0.1-0.8 0.2-1.5 0.3-2.3 0.2-1.6 0.4-3.2 0.6-4.6z" fill="#FFAFAF" /><path d="M513.4 384.7c40.3-3.3 61.6 12.8 63.6 48.4 0 23.7-20.6 57.2-61.8 100.4-14.2 15.7-23.8 26.6-28.7 32.7l92.4-13-0.1 29.8-133.9 18.8 0.1-41.3c2.8-3.4 11-12.7 24.5-27.6 45.4-47.7 67.8-79.5 67.1-95.4-1.4-15.8-9.2-23.6-23.3-23.1-14.2 3.5-22 15-23.4 34.3l-41.4 5.8c0-38.1 21.6-61.4 64.9-69.8z" fill="#FFDCDC" /><path d="M283.7 813.6c0.1 0.7 0.2 1.1 0.3 1.3l-1.5 0.2c-0.1-0.3-0.2-0.8-0.2-1.4v-0.5c-0.1-0.6-0.3-0.9-0.6-0.9l-1.5 0.2v2.9l-1.4 0.2v-7.1l2.8-0.4c1.5-0.1 2.3 0.3 2.3 1.5 0 0.9-0.5 1.6-1.4 1.9 0.6 0 1 0.5 1.2 1.4v0.7z m-2.3-2.4c0.6-0.1 1-0.5 1-1.1s-0.3-0.8-1-0.7l-1.2 0.2v1.9l1.2-0.3M289.8 806.9v1.2l-3 0.4v1.7l2.8-0.4v1.2l-2.8 0.4v1.9l3.1-0.5v1.2l-4.5 0.7v-7.2zM294.1 806.2c1.5-0.1 2.2 0.5 2.3 1.9l-1.4 0.2c-0.1-0.7-0.4-1-1.1-0.9s-1 0.5-1 1.1c-0.1 0.5 0.3 0.8 1.2 0.8l0.1 0.1c1.6 0.1 2.4 0.6 2.3 1.6-0.1 1.5-1 2.4-2.8 2.7-1.8 0.2-2.6-0.4-2.5-2l1.4-0.2c0 0.9 0.3 1.2 1.1 1.1 0.8-0.1 1.3-0.5 1.3-1.1 0-0.5-0.4-0.7-1.2-0.8h-0.2c-1.5-0.1-2.2-0.7-2.2-1.7 0-1.6 1-2.5 2.7-2.8zM302.2 805.2v1.2l-3 0.4v1.6l2.9-0.3v1.1l-2.9 0.4v1.9l3.1-0.4v1.2l-4.5 0.6v-7.1zM309 804.2v1.2l-2 0.3v5.9l-1.4 0.2v-5.9l-2 0.3V805z" fill="" /><path d="M768.4 734.1v5l4.7-0.6v3.2l-4.7 0.7v5.1l-3 0.4v-5.1l-4.7 0.7v-3.3l4.7-0.6v-5.1z" fill="" /><path d="M859.9 726.5v3.3l-12.4 1.7v-3.2z" fill="" /></svg>